<?xml version="1.0" standalone="no"?>
<!DOCTYPE svg PUBLIC "-//W3C//DTD SVG 20010904//EN"
 "http://www.w3.org/TR/2001/REC-SVG-20010904/DTD/svg10.dtd">
<svg version="1.0" xmlns="http://www.w3.org/2000/svg"
 width="198.000000pt" height="114.000000pt" viewBox="0 0 198.000000 114.000000"
 preserveAspectRatio="xMidYMid meet">
<metadata>
Created by potrace 1.16, written by Peter Selinger 2001-2019
</metadata>
<g transform="translate(0.000000,114.000000) scale(0.100000,-0.100000)"
fill="#000000" stroke="none">
<path d="M433 1115 c-10 -14 -26 -35 -35 -46 -9 -12 -22 -36 -28 -55 -7 -19
-15 -34 -20 -34 -5 0 -14 -16 -21 -35 -7 -19 -16 -35 -20 -35 -4 0 -11 -9 -14
-20 -6 -19 -45 -29 -45 -11 0 5 -22 14 -50 21 -27 7 -50 15 -50 20 0 13 -116
38 -134 28 -21 -12 -20 -58 5 -188 11 -58 29 -151 39 -208 21 -113 47 -160
100 -182 17 -7 30 -16 30 -20 0 -4 40 -15 89 -24 118 -21 361 -22 442 -1 82
21 129 71 129 136 0 24 4 29 23 29 34 0 47 19 47 65 0 23 3 45 8 49 8 9 30
206 31 287 1 60 -17 91 -41 72 -7 -5 -33 -15 -58 -22 -25 -7 -49 -17 -55 -21
-5 -4 -28 -13 -50 -20 -22 -7 -45 -16 -51 -21 -6 -5 -17 0 -27 11 -9 11 -14
20 -11 20 3 0 -4 12 -15 26 -12 15 -21 32 -21 39 0 7 -7 15 -15 19 -8 3 -15
10 -15 16 0 15 -51 92 -75 112 -30 26 -71 23 -92 -7z m67 -99 c0 -7 8 -21 18
-32 20 -22 53 -73 78 -123 26 -51 61 -81 94 -81 16 0 32 4 35 10 3 5 25 15 48
21 23 6 44 14 47 19 3 4 15 10 28 14 19 6 22 4 22 -17 0 -40 -12 -89 -19 -78
-4 6 -34 12 -66 13 -54 3 -60 1 -60 -17 0 -16 10 -21 54 -28 30 -5 59 -14 65
-21 13 -13 9 -136 -5 -136 -5 0 -9 4 -9 8 0 9 -135 32 -187 32 -17 0 -35 5
-38 10 -8 12 -189 13 -213 1 -9 -5 -60 -15 -112 -21 -52 -7 -96 -16 -98 -21
-6 -15 -32 -10 -32 6 0 8 -5 15 -12 15 -9 0 -8 5 2 15 18 17 144 45 206 45 24
0 44 5 44 10 0 6 18 10 40 10 33 0 40 3 40 19 0 11 -6 21 -12 24 -18 6 -172
-5 -178 -12 -3 -4 -36 -13 -75 -20 -38 -8 -73 -19 -77 -25 -5 -6 -8 -2 -8 10
0 22 26 39 78 49 23 5 32 12 32 26 0 16 -7 19 -43 19 -24 0 -49 -6 -55 -12
-17 -17 -32 6 -32 49 0 17 -5 35 -10 38 -23 14 -7 22 25 12 19 -6 35 -14 35
-18 0 -4 22 -12 50 -19 28 -7 50 -16 50 -21 0 -5 15 -9 34 -9 26 0 41 8 65 35
17 20 34 47 37 60 3 14 10 25 14 25 5 0 14 16 21 35 7 19 17 35 22 35 4 0 5 5
2 10 -3 6 -1 10 4 10 6 0 11 6 11 13 0 17 21 38 32 31 4 -3 8 -11 8 -18z m-81
-517 c3 -60 17 -69 108 -69 95 0 213 -11 213 -19 0 -29 -211 -49 -345 -33
-146 18 -225 50 -225 93 0 13 14 22 52 34 28 8 62 15 75 15 13 0 23 5 23 10 0
6 22 10 48 10 l48 0 3 -41z"/>
<path d="M1010 425 l0 -105 30 0 c29 0 30 1 31 53 l0 52 27 -53 c25 -50 28
-53 62 -50 l35 3 0 100 0 100 -32 3 -33 3 0 -48 -1 -48 -25 48 c-22 42 -28 47
-59 47 l-35 0 0 -105z"/>
<path d="M1320 483 c-35 -13 -50 -37 -50 -79 0 -34 5 -47 26 -63 49 -39 148
-21 131 23 -4 10 -17 13 -49 9 -32 -3 -39 -2 -28 6 8 6 27 11 41 11 33 0 50
19 42 48 -9 37 -70 61 -113 45z"/>
<path d="M1503 482 c-13 -9 9 -136 29 -159 19 -23 61 -11 77 21 l14 29 13 -31
c9 -23 20 -32 36 -32 37 0 46 12 62 80 20 84 20 87 -4 95 -31 10 -50 -12 -51
-59 l-1 -41 -10 38 c-17 63 -73 73 -85 15 -7 -35 -20 -25 -25 17 -3 31 -30 44
-55 27z"/>
<path d="M1830 477 c-18 -9 -25 -21 -25 -41 0 -28 4 -32 55 -55 23 -10 22 -11
-13 -7 -27 4 -40 1 -44 -10 -10 -26 17 -44 67 -44 49 0 80 20 80 53 0 19 -37
47 -62 47 -10 0 -18 5 -18 11 0 7 11 8 30 4 23 -5 32 -3 37 11 14 37 -56 57
-107 31z"/>
</g>
</svg>
